<svg xmlns="http://www.w3.org/2000/svg" viewBox="0 0 59 59"><defs><style>.cls-1{fill:#fff;}</style></defs><g id="Camada_2" data-name="Camada 2"><g id="Camada_1-2" data-name="Camada 1"><path class="cls-1" d="M29.5,0A29.5,29.5,0,1,0,59,29.5,29.5,29.5,0,0,0,29.5,0Zm0,13.08a5,5,0,1,1-5,5A5,5,0,0,1,29.5,13.08ZM36.16,43.3a1.43,1.43,0,0,1-1.43,1.43H24.27a1.43,1.43,0,0,1-1.43-1.43V40.44A1.43,1.43,0,0,1,24.27,39h1.42V31.4H24.27A1.43,1.43,0,0,1,22.84,30V27.12a1.43,1.43,0,0,1,1.43-1.43h7.61a1.43,1.43,0,0,1,1.43,1.43V39h1.42a1.43,1.43,0,0,1,1.43,1.42Z"/></g></g></svg>